<svg width="70" height="14" viewBox="0 0 70 14" fill="none" xmlns="http://www.w3.org/2000/svg">
<path d="M8.946 4.068C8.862 3.984 8.706 3.87 8.478 3.726C8.262 3.582 7.992 3.444 7.668 3.312C7.356 3.18 7.014 3.066 6.642 2.97C6.27 2.862 5.892 2.808 5.508 2.808C4.836 2.808 4.326 2.934 3.978 3.186C3.642 3.438 3.474 3.792 3.474 4.248C3.474 4.596 3.582 4.872 3.798 5.076C4.014 5.28 4.338 5.454 4.77 5.598C5.202 5.742 5.742 5.898 6.39 6.066C7.23 6.27 7.956 6.522 8.568 6.822C9.192 7.11 9.666 7.494 9.99 7.974C10.326 8.442 10.494 9.066 10.494 9.846C10.494 10.53 10.368 11.118 10.116 11.61C9.864 12.09 9.516 12.48 9.072 12.78C8.628 13.08 8.124 13.302 7.56 13.446C6.996 13.578 6.396 13.644 5.76 13.644C5.124 13.644 4.488 13.578 3.852 13.446C3.216 13.314 2.604 13.128 2.016 12.888C1.428 12.636 0.888 12.336 0.396 11.988L1.494 9.846C1.602 9.954 1.794 10.098 2.07 10.278C2.346 10.446 2.682 10.62 3.078 10.8C3.474 10.968 3.906 11.112 4.374 11.232C4.842 11.352 5.316 11.412 5.796 11.412C6.468 11.412 6.978 11.298 7.326 11.07C7.674 10.842 7.848 10.518 7.848 10.098C7.848 9.714 7.71 9.414 7.434 9.198C7.158 8.982 6.774 8.796 6.282 8.64C5.79 8.472 5.208 8.292 4.536 8.1C3.732 7.872 3.06 7.62 2.52 7.344C1.98 7.056 1.578 6.696 1.314 6.264C1.05 5.832 0.918 5.292 0.918 4.644C0.918 3.768 1.122 3.036 1.53 2.448C1.95 1.848 2.514 1.398 3.222 1.098C3.93 0.786 4.716 0.629999 5.58 0.629999C6.18 0.629999 6.744 0.695999 7.272 0.827999C7.812 0.959999 8.316 1.134 8.784 1.35C9.252 1.566 9.672 1.8 10.044 2.052L8.946 4.068ZM22.4691 2.898H18.3831V13.5H15.9171V2.898H11.8311V0.719999H22.4691V2.898ZM30.0136 13.59C28.9936 13.59 28.1236 13.422 27.4036 13.086C26.6956 12.738 26.1196 12.264 25.6756 11.664C25.2436 11.064 24.9256 10.386 24.7216 9.63C24.5176 8.862 24.4156 8.064 24.4156 7.236V0.719999H26.8996V7.236C26.8996 7.764 26.9476 8.28 27.0436 8.784C27.1516 9.276 27.3256 9.72 27.5656 10.116C27.8056 10.512 28.1236 10.824 28.5196 11.052C28.9156 11.28 29.4076 11.394 29.9956 11.394C30.5956 11.394 31.0936 11.28 31.4896 11.052C31.8976 10.812 32.2156 10.494 32.4436 10.098C32.6836 9.702 32.8576 9.258 32.9656 8.766C33.0736 8.262 33.1276 7.752 33.1276 7.236V0.719999H35.5936V7.236C35.5936 8.112 35.4856 8.934 35.2696 9.702C35.0656 10.47 34.7356 11.148 34.2796 11.736C33.8356 12.312 33.2596 12.768 32.5516 13.104C31.8436 13.428 30.9976 13.59 30.0136 13.59ZM38.6356 13.5V0.719999H43.2796C44.6716 0.719999 45.8356 1.008 46.7716 1.584C47.7076 2.148 48.4096 2.916 48.8776 3.888C49.3456 4.848 49.5796 5.916 49.5796 7.092C49.5796 8.388 49.3216 9.516 48.8056 10.476C48.2896 11.436 47.5576 12.18 46.6096 12.708C45.6736 13.236 44.5636 13.5 43.2796 13.5H38.6356ZM47.0776 7.092C47.0776 6.264 46.9276 5.538 46.6276 4.914C46.3276 4.278 45.8956 3.786 45.3316 3.438C44.7676 3.078 44.0836 2.898 43.2796 2.898H41.1196V11.322H43.2796C44.0956 11.322 44.7856 11.142 45.3496 10.782C45.9136 10.41 46.3396 9.906 46.6276 9.27C46.9276 8.622 47.0776 7.896 47.0776 7.092ZM52.0604 13.5V0.719999H54.5444V13.5H52.0604ZM63.2048 13.59C62.2688 13.59 61.4168 13.41 60.6488 13.05C59.8928 12.69 59.2388 12.204 58.6868 11.592C58.1468 10.968 57.7268 10.272 57.4268 9.504C57.1268 8.724 56.9768 7.926 56.9768 7.11C56.9768 6.258 57.1328 5.448 57.4448 4.68C57.7688 3.9 58.2068 3.21 58.7588 2.61C59.3228 1.998 59.9828 1.518 60.7388 1.17C61.5068 0.809999 62.3468 0.629999 63.2588 0.629999C64.1828 0.629999 65.0228 0.816 65.7788 1.188C66.5468 1.56 67.2008 2.058 67.7408 2.682C68.2808 3.306 68.7008 4.002 69.0008 4.77C69.3008 5.538 69.4508 6.33 69.4508 7.146C69.4508 7.986 69.2948 8.796 68.9828 9.576C68.6708 10.344 68.2328 11.034 67.6688 11.646C67.1168 12.246 66.4568 12.72 65.6888 13.068C64.9328 13.416 64.1048 13.59 63.2048 13.59ZM59.4968 7.11C59.4968 7.662 59.5808 8.196 59.7488 8.712C59.9168 9.228 60.1568 9.69 60.4688 10.098C60.7928 10.494 61.1828 10.812 61.6388 11.052C62.1068 11.28 62.6348 11.394 63.2228 11.394C63.8228 11.394 64.3568 11.274 64.8248 11.034C65.2928 10.782 65.6828 10.452 65.9948 10.044C66.3068 9.624 66.5408 9.162 66.6968 8.658C66.8648 8.142 66.9488 7.626 66.9488 7.11C66.9488 6.558 66.8588 6.03 66.6788 5.526C66.5108 5.01 66.2648 4.554 65.9408 4.158C65.6288 3.75 65.2388 3.432 64.7708 3.204C64.3148 2.964 63.7988 2.844 63.2228 2.844C62.6108 2.844 62.0708 2.97 61.6028 3.222C61.1468 3.462 60.7628 3.786 60.4508 4.194C60.1388 4.602 59.8988 5.058 59.7308 5.562C59.5748 6.066 59.4968 6.582 59.4968 7.11Z" fill="#2E2F42"/>
</svg>
